<svg id="Line_expand" height="512" viewBox="0 0 512 512" width="512" xmlns="http://www.w3.org/2000/svg" data-name="Line expand"><g><path d="m56 154a2 2 0 0 1 2-2h14v24h16v-96h344a8 8 0 0 0 8-8v-48a8 8 0 0 0 -8-8h-40v16h32v32h-336v-32h288v-16h-296a8 8 0 0 0 -8 8v112h-14a18.021 18.021 0 0 0 -18 18v22h16z"/><path d="m456 352h-400v-32h-16v78a18.021 18.021 0 0 0 18 18h30v-16h-30a2 2 0 0 1 -2-2v-30h400v30a2 2 0 0 1 -2 2h-350v16h104v14.586a21.931 21.931 0 0 1 -18.383 21.7l-6.22 1.037a27.911 27.911 0 0 0 -23.397 27.619v7.058a8 8 0 0 0 8 8h176a8 8 0 0 0 8-8v-7.058a27.911 27.911 0 0 0 -23.4-27.618l-6.22-1.037a21.931 21.931 0 0 1 -18.38-21.701v-14.586h150a18.021 18.021 0 0 0 18-18v-174h-16zm-136.247 116.069 6.22 1.037a11.958 11.958 0 0 1 9.991 10.894h-159.928a11.958 11.958 0 0 1 9.991-10.894l6.221-1.037a37.881 37.881 0 0 0 31.752-37.483v-14.586h64v14.586a37.881 37.881 0 0 0 31.753 37.483z"/><path d="m72 328a8 8 0 0 0 8 8h352a8 8 0 0 0 8-8v-104h-16v96h-352z"/><path d="m256 112a88 88 0 1 0 88 88 88.1 88.1 0 0 0 -88-88zm0 120a32 32 0 1 1 32-32 32.036 32.036 0 0 1 -32 32zm-8-103.559v24.226a48.125 48.125 0 0 0 -39.333 39.333h-24.226a72.147 72.147 0 0 1 63.559-63.559zm-63.559 79.559h24.226a48.125 48.125 0 0 0 39.333 39.333v24.226a72.147 72.147 0 0 1 -63.559-63.559zm79.559 63.559v-24.226a48.005 48.005 0 0 0 0-94.666v-24.226a72.005 72.005 0 0 1 0 143.118z"/><path d="m170.343 125.657 11.314-11.314-16-16a8 8 0 0 0 -5.657-2.343h-48v16h44.686z"/><path d="m112 128h40v16h-40z"/><path d="m341.657 274.343-11.314 11.314 16 16a8 8 0 0 0 5.657 2.343h48v-16h-44.686z"/><path d="m360 256h40v16h-40z"/><path d="m104 40h16v16h-16z"/><path d="m136 40h16v16h-16z"/><path d="m168 40h16v16h-16z"/><path d="m392 40h16v16h-16z"/><path d="m144 296v-12l28.8-21.6a8 8 0 0 0 -1.991-13.891l-26.809-10.053v-38.456a8 8 0 0 0 -8-8h-112a8 8 0 0 0 -8 8v96a8 8 0 0 0 8 8h112a8 8 0 0 0 8-8zm-16-16v8h-96v-80h96v36a8 8 0 0 0 5.191 7.491l18.326 6.872-20.317 15.237a8 8 0 0 0 -3.2 6.4z"/><path d="m48 248h16v24h-16z"/><path d="m72 224h16v48h-16z"/><path d="m96 240h16v32h-16z"/><path d="m488 96h-112a8 8 0 0 0 -8 8v12l-28.8 21.6a8 8 0 0 0 1.991 13.891l26.809 10.053v38.456a8 8 0 0 0 8 8h112a8 8 0 0 0 8-8v-96a8 8 0 0 0 -8-8zm-8 96h-96v-36a8 8 0 0 0 -5.191-7.491l-18.326-6.872 20.317-15.237a8 8 0 0 0 3.2-6.4v-8h96z"/><path d="m424 155.314 10.343 10.343a8 8 0 0 0 12.057-.857l24-32-12.8-9.6-18.466 24.621-9.477-9.478a8 8 0 0 0 -11.314 0l-24 24 11.314 11.314z"/></g></svg>