<svg id="Layer_5" enable-background="new 0 0 64 64" height="512" viewBox="0 0 64 64" width="512" xmlns="http://www.w3.org/2000/svg"><g><path d="m31 30c0-1.654-1.346-3-3-3s-3 1.346-3 3 1.346 3 3 3 3-1.346 3-3zm-3 1c-.551 0-1-.448-1-1s.449-1 1-1 1 .448 1 1-.449 1-1 1z"/><path d="m36 33c1.654 0 3-1.346 3-3s-1.346-3-3-3-3 1.346-3 3 1.346 3 3 3zm0-4c.551 0 1 .448 1 1s-.449 1-1 1-1-.448-1-1 .449-1 1-1z"/><path d="m60 55c-1.302 0-2.402.839-2.816 2h-4.77l-4-4h-3.777c.154-.65.26-1.317.313-2h6.235c.414 1.161 1.514 2 2.816 2 1.654 0 3-1.346 3-3s-1.346-3-3-3c-1.302 0-2.402.839-2.816 2h-6.224c-.052-.68-.158-1.348-.313-2h3.766l4-4h4.77c.414 1.161 1.514 2 2.816 2 1.654 0 3-1.346 3-3s-1.346-3-3-3c-1.302 0-2.402.839-2.816 2h-5.598l-4 4h-3.592c-1.267-3.033-3.657-5.533-6.748-6.896l14.173-15.944c1.019-1.147 1.581-2.625 1.581-4.16 0-1.004-.653-2.447-6-3.626v-9.374h-6v8.453c-.654-.068-1.32-.128-2-.181v-12.272h-6v12.021c-.667-.007-1.333-.007-2 0v-5.021h-6v5.272c-.68.053-1.346.113-2 .181v-7.453h-6v8.376c-5.347 1.178-6 2.622-6 3.624 0 1.535.562 3.013 1.581 4.159l14.173 15.944c-3.091 1.363-5.482 3.864-6.748 6.896h-3.592l-4-4h-5.598c-.414-1.16-1.514-1.999-2.816-1.999-1.654 0-3 1.346-3 3s1.346 3 3 3c1.302 0 2.402-.839 2.816-2h4.77l4 4h3.766c-.155.652-.26 1.32-.313 2h-6.224c-.414-1.161-1.514-2-2.816-2-1.654 0-3 1.346-3 3s1.346 3 3 3c1.302 0 2.402-.839 2.816-2h6.235c.052.683.158 1.35.313 2h-3.777l-4 4h-4.77c-.414-1.161-1.514-2-2.816-2-1.654 0-3 1.346-3 3s1.346 3 3 3c1.302 0 2.402-.839 2.816-2h5.598l4-4h3.589c1.963 4.693 6.6 8 11.997 8s10.034-3.307 11.997-8h3.589l4 4h5.598c.414 1.161 1.514 2 2.816 2 1.654 0 3-1.346 3-3s-1.346-3-3-3zm0-14c.551 0 1 .448 1 1s-.449 1-1 1-1-.448-1-1 .449-1 1-1zm-56 2c-.551 0-1-.448-1-1s.449-1 1-1 1 .448 1 1-.449 1-1 1zm0 16c-.551 0-1-.448-1-1s.449-1 1-1 1 .448 1 1-.449 1-1 1zm50-10c.551 0 1 .448 1 1s-.449 1-1 1-1-.448-1-1 .449-1 1-1zm-3.029-30.996c-.309.448-1.683 1.037-3.971 1.574v-3.154c2.733.644 3.746 1.296 3.971 1.58zm-5.971-11.004v12.987c-.624.112-1.287.219-2 .318v-13.305zm-4 8.465v5.085c-.637.068-1.308.128-2 .183v-5.454c.682.054 1.348.116 2 .186zm-4-12.465v17.864c-.647.035-1.313.063-2 .085v-17.949zm-4 12.021v5.968c-.334.004-.658.011-1 .011s-.666-.007-1-.01v-5.968c.667-.008 1.333-.008 2-.001zm-4-5.021v10.949c-.687-.022-1.353-.05-2-.085v-10.864zm-4 5.279v5.454c-.692-.055-1.363-.115-2-.183v-5.085c.652-.07 1.318-.132 2-.186zm-4-7.279v12.305c-.713-.099-1.376-.206-2-.318v-11.987zm-4 8.425v3.153c-2.287-.537-3.661-1.125-3.971-1.574.225-.283 1.241-.935 3.971-1.579zm-2.958 4.359c5.778 2.18 17.799 2.216 17.958 2.216s12.18-.036 17.958-2.216c-.013.015-.021.032-.034.047l-14.373 16.169h-4.551v2h4v15.382l-6-3v-13.762l-14.924-16.789c-.013-.015-.022-.032-.034-.047zm-4.042 30.216c-.551 0-1-.448-1-1s.449-1 1-1 1 .448 1 1-.449 1-1 1zm22 10c-6.065 0-11-4.935-11-11 0-4.165 2.362-7.934 6-9.794v12.412l10 5v-17.412c3.638 1.86 6 5.629 6 9.794 0 6.065-4.935 11-11 11zm28-2c-.551 0-1-.448-1-1s.449-1 1-1 1 .448 1 1-.449 1-1 1z"/></g></svg>